<svg width="334" height="371" viewBox="0 0 334 371" fill="none" xmlns="http://www.w3.org/2000/svg">
<path fill-rule="evenodd" clip-rule="evenodd" d="M324.802 143.519L260.797 92.4202C202.335 45.1933 133.548 45.1933 73.2635 92.4202L9.25903 143.519C-5.77405 158.857 -1.97782 184.292 16.8515 194.543L165.664 275.557V277L166.954 276.241L168.321 277V275.557L317.133 194.543C335.963 184.292 339.759 158.857 324.802 143.519Z" fill="#006006"/>
<path fill-rule="evenodd" clip-rule="evenodd" d="M167 273C232.109 273 285 220.185 285 155C285 89.8154 232.185 37 167 37C101.815 37 49 89.8154 49 155C49 220.185 101.815 273 167 273Z" fill="#FCFCFC"/>
<path fill-rule="evenodd" clip-rule="evenodd" d="M256.608 258.954C270.538 255.333 284.517 252.073 298.362 248.15C302.913 246.871 306.197 241.692 304.688 237.02C303.191 232.385 298.435 229.319 293.558 230.695C279.7 234.606 265.722 237.877 251.791 241.487C247.216 242.67 243.981 248.017 245.478 252.629C246.999 257.348 251.695 260.221 256.608 258.954" fill="#D18070"/>
<path fill-rule="evenodd" clip-rule="evenodd" d="M317.532 194.016L196.49 259.948L167.5 248.63L138.738 260.1L17.392 194.016C8.13354 189.002 2.59366 180.343 1 171V338.11C1 356.264 15.7224 371 33.8598 371H301.14C319.278 371 334 356.264 334 338.11V171C332.406 180.343 326.791 189.002 317.608 194.016H317.532Z" fill="#00AA13"/>
<path fill-rule="evenodd" clip-rule="evenodd" d="M67.7029 331C65.7285 331 63.83 330.17 62.5391 328.585C60.1849 325.718 60.5646 321.568 63.4503 319.229L146.376 251.47C158.602 241.51 176.296 241.51 188.446 251.47L269.55 317.72C272.435 320.059 272.815 324.209 270.461 327.076C268.107 329.944 263.93 330.321 261.044 327.982L179.941 261.732C172.651 255.771 162.096 255.771 154.805 261.732L71.8796 329.491C70.6646 330.472 69.1458 331 67.627 331H67.7029Z" fill="#006006"/>
<path fill-rule="evenodd" clip-rule="evenodd" d="M38.8595 275.946L46.9736 278.392C52.8337 280.15 57.4167 284.813 59.1447 290.776L61.5489 299.108C62.3002 301.631 65.7562 301.631 66.5075 299.108L68.9117 290.776C70.6397 284.813 75.2226 280.15 81.0828 278.392L89.1969 275.946C91.601 275.182 91.601 271.665 89.1969 270.977L81.0828 268.531C75.2226 266.773 70.6397 262.11 68.9117 256.148L66.5075 247.892C65.7562 245.369 62.3002 245.369 61.5489 247.892L59.1447 256.148C57.4167 262.11 52.8337 266.85 46.9736 268.531L38.8595 270.977C36.3802 271.742 36.3802 275.258 38.8595 275.946Z" fill="#FFB500"/>
<path fill-rule="evenodd" clip-rule="evenodd" d="M278.658 125.201L285.899 127.335C291.082 128.859 295.198 132.975 296.722 138.158L298.856 145.399C299.466 147.534 302.591 147.534 303.201 145.399L305.335 138.158C306.859 132.975 310.975 128.859 316.158 127.335L323.399 125.201C325.534 124.591 325.534 121.466 323.399 120.856L316.158 118.722C310.899 117.198 306.859 113.082 305.335 107.899L303.201 100.658C302.591 98.4474 299.466 98.4474 298.856 100.658L296.722 107.899C295.198 113.158 291.082 117.198 285.899 118.722L278.658 120.856C276.447 121.466 276.447 124.591 278.658 125.201Z" fill="#FFB500"/>
<path fill-rule="evenodd" clip-rule="evenodd" d="M7.18705 71.3327L16.8561 74.1277C23.8393 76.0917 29.211 81.455 31.283 88.3291L34.1223 97.8471C34.9664 100.718 39.1103 100.718 39.9544 97.8471L42.7938 88.3291C44.8657 81.455 50.2374 76.0917 57.2206 74.1277L66.8129 71.3327C69.729 70.5018 69.729 66.4982 66.8129 65.5917L57.2206 62.7968C50.2374 60.7572 44.8657 55.4694 42.7938 48.5953L39.9544 39.1529C39.1103 36.2824 34.9664 36.2824 34.1223 39.1529L31.283 48.5953C29.211 55.4694 23.8393 60.7572 16.8561 62.7968L7.18705 65.5917C4.27098 66.4227 4.27098 70.5018 7.18705 71.3327Z" fill="#FFB500"/>
<path fill-rule="evenodd" clip-rule="evenodd" d="M160.813 229.502C152.775 229.502 144.701 226.847 137.972 221.41C122.351 208.771 119.914 185.894 132.553 170.255L259.34 13.481C271.978 -2.10369 294.873 -4.5405 310.476 8.07999C326.097 20.7187 328.534 43.5956 315.895 59.2348L189.109 216.009C181.926 224.883 171.415 229.502 160.813 229.502" fill="#FFD51C"/>
<path fill-rule="evenodd" clip-rule="evenodd" d="M160.624 229.516C152.586 229.516 144.512 226.861 137.765 221.424L50.4944 150.829C34.8915 138.209 32.4547 115.295 45.0934 99.6743C57.732 84.0897 80.6271 81.6529 96.2482 94.2734L183.519 164.868C199.14 177.507 201.558 200.402 188.92 216.023C181.737 224.897 171.226 229.516 160.624 229.516" fill="#FFD51C"/>
</svg>
